<?xml version="1.0" encoding="UTF-8"?>
<svg width="1200pt" height="1200pt" version="1.1" viewBox="0 0 1200 1200" xmlns="http://www.w3.org/2000/svg">
 <path d="m1032 146.4h-302.4v-36c0-44.398-36-80.398-80.398-80.398h-99.602c-44.398 0-80.398 36-80.398 80.398v37.199l-301.2 0.003906c-27.602 0-49.199 21.602-49.199 49.199 0 27.602 21.602 49.199 49.199 49.199h69.602v793.2c0 72 58.801 130.8 130.8 130.8h464.4c72 0 130.8-58.801 130.8-130.8v-793.2h68.398c27.602 0 49.199-21.602 49.199-49.199 0-27.602-21.598-50.402-49.199-50.402zm-577.2 830.4c0 21.602-18 39.602-39.602 39.602-21.602 0-39.602-18-39.602-39.602l0.003906-608.4c0-21.602 18-39.602 39.602-39.602s39.602 18 39.602 39.602zm184.8 0c0 21.602-18 39.602-39.602 39.602s-39.602-18-39.602-39.602v-608.4c0-21.602 18-39.602 39.602-39.602s39.602 18 39.602 39.602zm184.8 0c0 21.602-18 39.602-39.602 39.602s-39.602-18-39.602-39.602l0.003907-608.4c0-21.602 18-39.602 39.602-39.602 21.602 0 39.602 18 39.602 39.602z" fill="#ff001b"/>
</svg>
